<svg width="42" height="48" viewBox="0 0 42 48" fill="none" xmlns="http://www.w3.org/2000/svg">
<path fill-rule="evenodd" clip-rule="evenodd" d="M31.2059 3.77795C30.8417 3.55889 30.4692 3.35398 30.0884 3.16325C29.6994 2.97252 29.3 2.78697 28.8944 2.6263C28.7661 2.5724 28.639 2.52266 28.5097 2.47187C28.1548 2.34022 27.7968 2.19406 27.4316 2.0873C24.8206 1.21381 22.0583 0.886989 19.316 1.12706C16.5736 1.36714 13.9095 2.16899 11.4893 3.48294C9.069 4.79689 6.94399 6.59489 5.24585 8.76552C3.5477 10.9361 2.31261 13.4331 1.6173 16.1016C0.921993 18.7701 0.781341 21.5532 1.2038 24.2784C1.62626 27.0037 2.6029 29.6129 4.0733 31.9444C5.54369 34.276 7.47638 36.28 9.75166 37.8324C12.0269 39.3847 14.5965 40.4523 17.3005 40.969V46.7323C29.3809 44.9152 40.0789 35.3518 40.8766 22.7948C41.3515 15.2393 37.5731 7.52618 31.2059 3.77795Z" fill="#23D96C"/>
<path d="M16.2077 48V41.848C13.4354 41.1771 10.827 39.9521 8.53867 38.2466C6.25035 36.541 4.32924 34.3901 2.89087 31.9227C1.4525 29.4553 0.526309 26.7222 0.167882 23.8875C-0.190545 21.0527 0.0263525 18.1746 0.805182 15.4258C1.58401 12.677 2.90892 10.1141 4.70047 7.89077C6.49202 5.66745 8.7133 3.82953 11.2311 2.48722C13.7489 1.14491 16.5111 0.325875 19.3526 0.0792142C22.194 -0.167447 25.0561 0.163359 27.7668 1.05179C28.0503 1.13471 28.3429 1.24561 28.6274 1.35341L28.884 1.44983C29.0547 1.51617 29.1851 1.56696 29.3155 1.62293C29.6755 1.76494 30.0801 1.94738 30.5653 2.18579C30.9716 2.38964 31.3693 2.60836 31.7583 2.84193C38.3727 6.73528 42.4708 14.7811 41.9566 22.8643C41.1672 35.3031 30.8633 45.7952 17.4576 47.8113L16.2077 48ZM21.174 2.16921H21.147C16.4082 2.14578 11.8316 3.8972 8.31512 7.07987C4.79866 10.2626 2.5962 14.6468 2.13965 19.3724C1.68309 24.0981 3.00558 28.8242 5.84751 32.6234C8.68943 36.4227 12.8457 39.021 17.501 39.9086L18.3806 40.0796V45.449C30.1671 43.1437 39.0826 33.7648 39.783 22.7254C40.2466 15.4352 36.5756 8.19478 30.6471 4.70673L30.6388 4.70154C30.2963 4.49422 29.9446 4.30247 29.5938 4.12625C29.1707 3.91894 28.8157 3.75825 28.4857 3.62764C28.3522 3.57063 28.2415 3.52398 28.1298 3.4846L27.8504 3.38096C27.5948 3.28353 27.3527 3.19125 27.1179 3.12283C25.2001 2.49179 23.1946 2.16991 21.1761 2.16921H21.174Z" fill="#173647"/>
<path fill-rule="evenodd" clip-rule="evenodd" d="M17.1172 10.9666C17.4209 10.9287 17.729 10.9664 18.0147 11.0763C18.3004 11.1863 18.5547 11.365 18.7551 11.5968C19.0654 11.9368 19.3196 12.3241 19.5083 12.7443C20.1756 14.2183 20.5708 16.3318 19.7462 17.5177C18.8777 17.2949 18.0641 16.896 17.3557 16.3456C16.6472 15.7952 16.059 15.105 15.6274 14.3178C15.4093 13.8864 15.2866 13.413 15.2682 12.9298C15.2823 12.4323 15.4787 11.9574 15.8196 11.5954C16.1605 11.2334 16.6223 11.0096 17.1172 10.9666ZM11.2373 19.285C11.633 19.5779 12.0549 19.8336 12.4975 20.049C13.2991 20.3955 14.1667 20.5622 15.0394 20.5375C15.9121 20.5128 16.7689 20.2972 17.5497 19.9059C17.2437 19.1066 16.7792 18.3777 16.1844 17.763C15.5896 17.1484 14.8768 16.6609 14.0888 16.3298C13.6192 16.1185 13.1115 16.0053 12.5968 15.997C12.4869 15.9877 12.3767 15.9877 12.2669 15.997C11.8908 16.0123 11.5285 16.1436 11.2297 16.3729C10.9309 16.6023 10.7101 16.9184 10.5975 17.2782C10.4848 17.638 10.486 18.0239 10.6005 18.3831C10.715 18.7423 10.9373 19.0573 11.2373 19.285V19.285ZM17.5487 22.8435C16.7447 22.3066 15.0872 22.5233 14.1219 22.5409C13.5292 22.5493 12.9437 22.6732 12.3982 22.9057C11.9303 23.0715 11.5013 23.3319 11.138 23.6707C10.8365 23.9356 10.6273 24.2901 10.5411 24.6825C10.455 25.0749 10.4965 25.4846 10.6593 25.8518C10.8222 26.219 11.098 26.5243 11.4464 26.7233C11.7948 26.9223 12.1974 27.0044 12.5957 26.9577C13.1118 26.9611 13.622 26.8474 14.0878 26.625C15.5736 25.9823 17.3376 24.2201 17.5497 22.8435H17.5487ZM20.2489 24.9167C19.3964 25.2329 18.616 25.7175 17.9541 26.3418C17.2922 26.9661 16.7624 27.7174 16.3961 28.5509C16.1863 28.9748 16.0729 29.4399 16.0639 29.9129C16.0546 30.3134 16.167 30.7073 16.3862 31.0423C16.6054 31.3774 16.921 31.6378 17.2913 31.7891C17.6615 31.9404 18.069 31.9754 18.4595 31.8895C18.8501 31.8036 19.2053 31.6009 19.4782 31.3082C19.759 30.9112 20.0014 30.4885 20.2024 30.0456C20.8449 28.6639 21.0986 26.1896 20.2502 24.9167H20.2489ZM22.8946 17.4876C23.728 17.2424 24.5 16.8231 25.1599 16.2573C25.8197 15.6914 26.3523 14.9919 26.7227 14.2048C26.9316 13.7689 27.0443 13.293 27.0528 12.8096C27.0643 12.2972 26.8774 11.8003 26.5315 11.4227C26.1855 11.0452 25.7073 10.8164 25.1968 10.7841C24.8876 10.7503 24.5748 10.7933 24.2862 10.9091C23.9975 11.025 23.7416 11.2103 23.5412 11.4486C23.2585 11.8452 23.0142 12.2679 22.8117 12.7111C22.1703 14.1975 21.9406 16.3184 22.8956 17.4824L22.8946 17.4876ZM27.2483 30.0456C27.2389 29.5624 27.1256 29.0868 26.9162 28.6514C26.5782 27.8576 26.0755 27.145 25.4415 26.5607C24.8075 25.9765 24.0569 25.5341 23.2391 25.2629C22.833 26.0058 22.6009 26.8315 22.5604 27.6775C22.5199 28.5236 22.6719 29.3678 23.0052 30.1462C23.1831 30.5698 23.4276 30.9621 23.7294 31.3082C24.9017 32.5831 27.3559 31.6399 27.2494 30.0456H27.2483ZM31.5938 23.536C31.1977 23.255 30.7761 23.0121 30.3346 22.8104C29.789 22.5781 29.2036 22.4542 28.6108 22.4455C27.4803 22.351 26.3446 22.5491 25.3124 23.0208C25.6143 23.8098 26.0745 24.5284 26.6646 25.1321C27.2547 25.7358 27.9624 26.2118 28.7435 26.5306C29.2132 26.7413 29.7207 26.8541 30.2353 26.8623C30.6389 26.9086 31.0465 26.8214 31.396 26.6141C31.7455 26.4067 32.0177 26.0906 32.1712 25.7138C32.3247 25.337 32.3513 24.9203 32.2465 24.5271C32.1416 24.1339 31.9113 23.7859 31.5907 23.536H31.5938Z" fill="#173647"/>
</svg>
